# xmcd CD database file
#
# Track frame offsets:
#	200
#	20600
#	42800
#	92750
#	117800
#	136250
#	155900
#	171575
#	213275
#	238400
#	258425
#
# Disc length: 3836 seconds
#
# Revision: 0
# Processed by: cddbd v1.5.1PL0 Copyright (c) Steve Scherf et al.
# Submitted via: CDex 1.51
#
DISCID=9c0efa0b
DTITLE=Little Roger and The Houserockers - Jumpin' The Blues
DYEAR=1996
DGENRE=Blues
TTITLE0=Jumpin' The Blues
TTITLE1=She's Dynamite
TTITLE2=Railroad Station Blues
TTITLE3=Big Fat Mama
TTITLE4=Blues Is My Religion
TTITLE5=Come On
TTITLE6=Jumping And Jiving
TTITLE7=Together Too Long
TTITLE8=Cross-Eyed Suzie Lee
TTITLE9=Play With Your Poodle
TTITLE10=Trouble In Mind
EXTD=YEAR: 1996
EXTT0=
EXTT1=
EXTT2=
EXTT3=
EXTT4=
EXTT5=
EXTT6=
EXTT7=
EXTT8=
EXTT9=
EXTT10=
PLAYORDER=
